<!-- <svg id ="loginimage" width="724" height="539" viewBox="0 0 724 539" fill="none" xmlns="http://www.w3.org/2000/svg">
    <path d="M695.699 534.562L683.329 534.654C674.61 534.721 662.259 534.809 647.002 534.914C643.398 534.947 639.627 534.972 635.711 534.997C630.132 535.043 624.244 535.085 618.072 535.131L598.599 535.269C417.119 536.575 50.4436 539.098 50.1687 538.11L50.1126 537.955C50.1126 537.955 50.0511 537.801 50.0511 537.721C49.8188 537.089 -73.5903 354.294 70.2951 229.422C126.593 180.565 74.758 158.331 120.702 106.228C161.387 60.0779 210.447 69.9731 255.426 79.8683C288.432 87.1275 319.242 94.3869 342.931 79.5043C500.987 -19.8118 561.825 -4.39787 608.175 12.7608C615.105 15.3298 623.397 20.5054 631.697 27.8902C644.248 39.049 656.829 55.2495 664.778 75.0943C676.186 103.571 678.05 139.553 656.597 178.9C656.171 179.682 655.763 180.481 655.386 181.289C644.448 204.464 652.206 237.367 665.563 270.057C674.12 290.994 684.966 311.839 694.671 329.985C759.221 450.673 696.279 532.981 695.699 534.562Z" fill="#EAFDF4"/>
    </svg> -->

    <!-- <svg  id ="loginicon" viewBox="0 0 24 24" xmlns="http://www.w3.org/2000/svg">
<path d="M19.9591 0H4.04087C1.81447 0 0 1.81447 0 4.05067V12C0 12.4855 0.397221 12.8827 0.882713 12.8827H14.452L12.5051 14.8296C12.1618 15.1729 12.1618 15.7319 12.5051 16.0801C12.6767 16.2517 12.9023 16.34 13.1279 16.34C13.3535 16.34 13.5791 16.2517 13.7507 16.0801L17.2031 12.6277C17.5464 12.2844 17.5464 11.7254 17.2031 11.3772L13.7507 7.92481C13.4074 7.58153 12.8484 7.58153 12.5002 7.92481C12.1569 8.26808 12.1569 8.82714 12.5002 9.17532L14.452 11.1173H1.76543V4.05067C1.76543 2.79036 2.78545 1.76543 4.04087 1.76543H19.9591C21.2145 1.76543 22.2346 2.79036 22.2346 4.05067V19.9493C22.2346 21.2096 21.2145 22.2346 19.9591 22.2346H4.04087C2.78545 22.2346 1.76543 21.2096 1.76543 19.9493V17.8897C1.76543 17.4042 1.36821 17.0069 0.882713 17.0069C0.397221 17.0069 0 17.4042 0 17.8897V19.9493C0 22.1806 1.81447 24 4.04087 24H19.9591C22.1855 24 24 22.1855 24 19.9493V4.05067C24 1.81937 22.1855 0 19.9591 0Z" fill="white"/>
</svg> -->
<svg xmlns="http://www.w3.org/2000/svg">
  <symbol id="loginicon" viewBox="0 0 24 24" width="24" height="24" fill="none" >
   <path d="M19.9591 0H4.04087C1.81447 0 0 1.81447 0 4.05067V12C0 12.4855 0.397221 12.8827 0.882713 12.8827H14.452L12.5051 14.8296C12.1618 15.1729 12.1618 15.7319 12.5051 16.0801C12.6767 16.2517 12.9023 16.34 13.1279 16.34C13.3535 16.34 13.5791 16.2517 13.7507 16.0801L17.2031 12.6277C17.5464 12.2844 17.5464 11.7254 17.2031 11.3772L13.7507 7.92481C13.4074 7.58153 12.8484 7.58153 12.5002 7.92481C12.1569 8.26808 12.1569 8.82714 12.5002 9.17532L14.452 11.1173H1.76543V4.05067C1.76543 2.79036 2.78545 1.76543 4.04087 1.76543H19.9591C21.2145 1.76543 22.2346 2.79036 22.2346 4.05067V19.9493C22.2346 21.2096 21.2145 22.2346 19.9591 22.2346H4.04087C2.78545 22.2346 1.76543 21.2096 1.76543 19.9493V17.8897C1.76543 17.4042 1.36821 17.0069 0.882713 17.0069C0.397221 17.0069 0 17.4042 0 17.8897V19.9493C0 22.1806 1.81447 24 4.04087 24H19.9591C22.1855 24 24 22.1855 24 19.9493V4.05067C24 1.81937 22.1855 0 19.9591 0Z" fill="white"/>
</symbol>
  <symbol id="play" viewBox="0 0 15 15">
    <path d="M7.5,0.5c3.9,0,7,3.1,7,7c0,3.9-3.1,7-7,7c-3.9,0-7-3.1-7-7l0,0C0.5,3.6,3.6,0.5,7.5,0.5 C7.5,0.5,7.5,0.5,7.5,0.5L7.5,0.5L7.5,0.5z M6.1,4.7v5.6l4.2-2.8L6.1,4.7z"/>
  </symbol>
</svg>
    